<svg width="560" height="170" viewBox="0 0 560 170" fill="none" xmlns="http://www.w3.org/2000/svg">
<rect width="560" height="170"/>
<path d="M227.536 73.96C224.165 73.96 221.125 73.3733 218.416 72.2C215.728 71.0267 213.509 69.352 211.76 67.176C210.032 64.9787 208.933 62.376 208.464 59.368L216.464 58.152C217.147 60.8827 218.544 62.9947 220.656 64.488C222.789 65.9813 225.243 66.728 228.016 66.728C229.659 66.728 231.205 66.472 232.656 65.96C234.107 65.448 235.28 64.7013 236.176 63.72C237.093 62.7387 237.552 61.5333 237.552 60.104C237.552 59.464 237.445 58.8773 237.232 58.344C237.019 57.7893 236.699 57.2987 236.272 56.872C235.867 56.4453 235.333 56.0613 234.672 55.72C234.032 55.3573 233.285 55.048 232.432 54.792L220.528 51.272C219.504 50.9733 218.395 50.5787 217.2 50.088C216.027 49.576 214.907 48.8827 213.84 48.008C212.795 47.112 211.931 45.9813 211.248 44.616C210.587 43.2293 210.256 41.5227 210.256 39.496C210.256 36.5307 211.003 34.0453 212.496 32.04C214.011 30.0133 216.037 28.4987 218.576 27.496C221.136 26.4933 223.973 26.0027 227.088 26.024C230.245 26.0453 233.061 26.5893 235.536 27.656C238.011 28.7013 240.08 30.2267 241.744 32.232C243.408 34.2373 244.581 36.6587 245.264 39.496L236.976 40.936C236.635 39.3147 235.973 37.9387 234.992 36.808C234.032 35.656 232.848 34.7813 231.44 34.184C230.053 33.5867 228.571 33.2667 226.992 33.224C225.456 33.2027 224.027 33.4373 222.704 33.928C221.403 34.3973 220.347 35.08 219.536 35.976C218.747 36.872 218.352 37.9173 218.352 39.112C218.352 40.2427 218.693 41.1707 219.376 41.896C220.059 42.6 220.901 43.1653 221.904 43.592C222.928 43.9973 223.963 44.3387 225.008 44.616L233.264 46.92C234.395 47.2187 235.664 47.624 237.072 48.136C238.48 48.648 239.835 49.3627 241.136 50.28C242.437 51.1973 243.504 52.4027 244.336 53.896C245.189 55.3893 245.616 57.288 245.616 59.592C245.616 61.9813 245.115 64.0827 244.112 65.896C243.131 67.688 241.797 69.1813 240.112 70.376C238.427 71.5707 236.496 72.4667 234.32 73.064C232.165 73.6613 229.904 73.96 227.536 73.96ZM276.447 73V56.36C276.447 55.272 276.372 54.0667 276.223 52.744C276.073 51.4213 275.721 50.152 275.167 48.936C274.633 47.6987 273.823 46.6853 272.735 45.896C271.668 45.1067 270.217 44.712 268.383 44.712C267.401 44.712 266.431 44.872 265.471 45.192C264.511 45.512 263.636 46.0667 262.847 46.856C262.079 47.624 261.46 48.6907 260.991 50.056C260.521 51.4 260.287 53.128 260.287 55.24L255.711 53.288C255.711 50.344 256.276 47.6773 257.407 45.288C258.559 42.8987 260.244 41 262.463 39.592C264.681 38.1627 267.412 37.448 270.655 37.448C273.215 37.448 275.327 37.8747 276.991 38.728C278.655 39.5813 279.977 40.6693 280.958 41.992C281.94 43.3147 282.665 44.7227 283.135 46.216C283.604 47.7093 283.903 49.128 284.031 50.472C284.18 51.7947 284.255 52.872 284.255 53.704V73H276.447ZM252.479 73V26.92H259.359V51.176H260.287V73H252.479ZM307.869 73.96C304.413 73.96 301.394 73.1813 298.813 71.624C296.232 70.0667 294.226 67.9227 292.797 65.192C291.389 62.44 290.685 59.2827 290.685 55.72C290.685 52.0933 291.41 48.9147 292.861 46.184C294.312 43.4533 296.328 41.32 298.909 39.784C301.49 38.248 304.477 37.48 307.869 37.48C311.346 37.48 314.376 38.2587 316.957 39.816C319.538 41.3733 321.544 43.528 322.973 46.28C324.402 49.0107 325.117 52.1573 325.117 55.72C325.117 59.304 324.392 62.472 322.941 65.224C321.512 67.9547 319.506 70.0987 316.925 71.656C314.344 73.192 311.325 73.96 307.869 73.96ZM307.869 66.728C310.941 66.728 313.224 65.704 314.717 63.656C316.21 61.608 316.957 58.9627 316.957 55.72C316.957 52.3707 316.2 49.704 314.685 47.72C313.17 45.7147 310.898 44.712 307.869 44.712C305.8 44.712 304.093 45.1813 302.749 46.12C301.426 47.0373 300.445 48.328 299.805 49.992C299.165 51.6347 298.845 53.544 298.845 55.72C298.845 59.0693 299.602 61.7467 301.117 63.752C302.653 65.736 304.904 66.728 307.869 66.728ZM332.168 73V38.44H338.984V46.856L338.152 45.768C338.578 44.616 339.144 43.5707 339.848 42.632C340.573 41.672 341.437 40.8827 342.44 40.264C343.293 39.688 344.232 39.24 345.256 38.92C346.301 38.5787 347.368 38.376 348.456 38.312C349.544 38.2267 350.6 38.2693 351.624 38.44V45.64C350.6 45.3413 349.416 45.2453 348.072 45.352C346.749 45.4587 345.554 45.832 344.488 46.472C343.421 47.048 342.546 47.784 341.864 48.68C341.202 49.576 340.712 50.6 340.392 51.752C340.072 52.8827 339.912 54.1093 339.912 55.432V73H332.168ZM377.986 73C375.703 73.4267 373.463 73.608 371.266 73.544C369.09 73.5013 367.138 73.1067 365.41 72.36C363.682 71.592 362.37 70.3867 361.474 68.744C360.685 67.2507 360.269 65.7253 360.226 64.168C360.183 62.6107 360.162 60.8507 360.162 58.888V28.84H367.842V58.44C367.842 59.8267 367.853 61.0427 367.874 62.088C367.917 63.1333 368.141 63.9867 368.546 64.648C369.314 65.928 370.541 66.6427 372.226 66.792C373.911 66.9413 375.831 66.856 377.986 66.536V73ZM353.89 44.488V38.44H377.986V44.488H353.89ZM399.38 73.96C395.881 73.96 392.809 73.2027 390.164 71.688C387.518 70.1733 385.449 68.072 383.956 65.384C382.484 62.696 381.748 59.6027 381.748 56.104C381.748 52.328 382.473 49.0533 383.924 46.28C385.374 43.4853 387.39 41.32 389.972 39.784C392.553 38.248 395.54 37.48 398.932 37.48C402.516 37.48 405.556 38.3227 408.052 40.008C410.569 41.672 412.436 44.0293 413.652 47.08C414.868 50.1307 415.326 53.7253 415.028 57.864H407.38V55.048C407.358 51.2933 406.697 48.552 405.396 46.824C404.094 45.096 402.046 44.232 399.252 44.232C396.094 44.232 393.748 45.2133 392.212 47.176C390.676 49.1173 389.908 51.9653 389.908 55.72C389.908 59.2187 390.676 61.928 392.212 63.848C393.748 65.768 395.988 66.728 398.932 66.728C400.83 66.728 402.462 66.312 403.828 65.48C405.214 64.6267 406.281 63.4 407.028 61.8L414.644 64.104C413.321 67.2187 411.273 69.64 408.5 71.368C405.748 73.096 402.708 73.96 399.38 73.96ZM387.476 57.864V52.04H411.252V57.864H387.476ZM445.134 73V56.36C445.134 55.272 445.059 54.0667 444.91 52.744C444.761 51.4213 444.409 50.152 443.854 48.936C443.321 47.6987 442.51 46.6853 441.422 45.896C440.355 45.1067 438.905 44.712 437.07 44.712C436.089 44.712 435.118 44.872 434.158 45.192C433.198 45.512 432.323 46.0667 431.534 46.856C430.766 47.624 430.147 48.6907 429.678 50.056C429.209 51.4 428.974 53.128 428.974 55.24L424.398 53.288C424.398 50.344 424.963 47.6773 426.094 45.288C427.246 42.8987 428.931 41 431.15 39.592C433.369 38.1627 436.099 37.448 439.342 37.448C441.902 37.448 444.014 37.8747 445.678 38.728C447.342 39.5813 448.665 40.6693 449.646 41.992C450.627 43.3147 451.353 44.7227 451.822 46.216C452.291 47.7093 452.59 49.128 452.718 50.472C452.867 51.7947 452.942 52.872 452.942 53.704V73H445.134ZM421.166 73V38.44H428.046V49.16H428.974V73H421.166ZM474.105 73V26.92H481.049L496.985 59.56L512.921 26.92H519.865V73H512.665V43.464L498.521 73H495.449L481.337 43.464V73H474.105ZM533.399 88.36L540.055 70.088L540.183 75.464L525.111 38.44H533.143L543.831 65.832H541.783L552.183 38.44H559.895L540.631 88.36H533.399Z" fill="#6996DC"/>
<path d="M211.12 160V113.92H218.832V152.768H239.184V160H211.12ZM245.245 120.192V113.12H252.957V120.192H245.245ZM245.245 160V125.44H252.957V160H245.245ZM286.447 160V143.36C286.447 142.272 286.372 141.067 286.223 139.744C286.073 138.421 285.721 137.152 285.167 135.936C284.633 134.699 283.823 133.685 282.735 132.896C281.668 132.107 280.217 131.712 278.383 131.712C277.401 131.712 276.431 131.872 275.471 132.192C274.511 132.512 273.636 133.067 272.847 133.856C272.079 134.624 271.46 135.691 270.991 137.056C270.521 138.4 270.287 140.128 270.287 142.24L265.711 140.288C265.711 137.344 266.276 134.677 267.407 132.288C268.559 129.899 270.244 128 272.463 126.592C274.681 125.163 277.412 124.448 280.655 124.448C283.215 124.448 285.327 124.875 286.991 125.728C288.655 126.581 289.977 127.669 290.958 128.992C291.94 130.315 292.665 131.723 293.135 133.216C293.604 134.709 293.903 136.128 294.031 137.472C294.18 138.795 294.255 139.872 294.255 140.704V160H286.447ZM262.479 160V125.44H269.359V136.16H270.287V160H262.479ZM302.541 160L302.605 113.92H310.413V142.08L323.053 125.44H332.685L319.277 142.72L333.837 160H323.629L310.413 143.36V160H302.541Z" fill="#6996DC"/>
<path d="M211.12 160V113.92H218.832V152.768H239.184V160H211.12ZM245.245 120.192V113.12H252.957V120.192H245.245ZM245.245 160V125.44H252.957V160H245.245ZM286.447 160V143.36C286.447 142.272 286.372 141.067 286.223 139.744C286.073 138.421 285.721 137.152 285.167 135.936C284.633 134.699 283.823 133.685 282.735 132.896C281.668 132.107 280.217 131.712 278.383 131.712C277.401 131.712 276.431 131.872 275.471 132.192C274.511 132.512 273.636 133.067 272.847 133.856C272.079 134.624 271.46 135.691 270.991 137.056C270.521 138.4 270.287 140.128 270.287 142.24L265.711 140.288C265.711 137.344 266.276 134.677 267.407 132.288C268.559 129.899 270.244 128 272.463 126.592C274.681 125.163 277.412 124.448 280.655 124.448C283.215 124.448 285.327 124.875 286.991 125.728C288.655 126.581 289.977 127.669 290.958 128.992C291.94 130.315 292.665 131.723 293.135 133.216C293.604 134.709 293.903 136.128 294.031 137.472C294.18 138.795 294.255 139.872 294.255 140.704V160H286.447ZM262.479 160V125.44H269.359V136.16H270.287V160H262.479ZM302.541 160L302.605 113.92H310.413V142.08L323.053 125.44H332.685L319.277 142.72L333.837 160H323.629L310.413 143.36V160H302.541Z" fill="black"/>
<path d="M81.1693 45.3169L109.313 17.1733C120.173 6.31332 139.874 8.40724 150.734 19.2668C161.593 30.1264 163.687 49.8279 152.827 60.6879L111.141 102.374C100.281 113.234 80.579 111.14 69.7198 100.281" stroke="black" stroke-width="20" stroke-linecap="round" stroke-linejoin="round"/>
<path d="M88.8307 124.683L60.6875 152.827C49.8275 163.687 30.1256 161.593 19.2665 150.733C8.40727 139.874 6.31336 120.172 17.1733 109.312L58.8591 67.626C69.7191 56.766 89.421 58.8599 100.28 69.7191" stroke="black" stroke-width="20" stroke-linecap="round" stroke-linejoin="round"/>
</svg>
